<svg width="250" height="66" viewBox="0 0 250 66" fill="none" xmlns="http://www.w3.org/2000/svg">
<path d="M29 35.5L42.5 17L46.5 22L42 46.5L48 35.5L54.5 46.5L49.5 22L53 17L67 35.5L59 53.5L54.5 46.5L48 35.5L42 46.5L39 53.5L29 35.5Z" fill="#B5C7E6"/>
<path d="M54.5 46.5L48 35.5L42 46.5M54.5 46.5L59 53.5L67 35.5L53 17L49.5 22L54.5 46.5ZM42 46.5L39 53.5L29 35.5L42.5 17L46.5 22L42 46.5Z" stroke="#2D3261"/>
<path d="M40 21V50" stroke="#2D3261" stroke-width="0.5"/>
<path d="M42 18V46" stroke="#2D3261" stroke-width="0.5"/>
<path d="M44 19V34" stroke="#2D3261" stroke-width="0.5"/>
<path d="M34 29V44" stroke="#2D3261" stroke-width="0.5"/>
<path d="M32 31V41" stroke="#2D3261" stroke-width="0.5"/>
<ellipse cx="47" cy="11.5" rx="6" ry="5.5" fill="#2D3261"/>
<path d="M36 26V48" stroke="#2D3261" stroke-width="0.5"/>
<path d="M38 23V51" stroke="#2D3261" stroke-width="0.5"/>
<path d="M60 26V51" stroke="#2D3261" stroke-width="0.5"/>
<path d="M58 24V52" stroke="#2D3261" stroke-width="0.5"/>
<path d="M56 21V48" stroke="#2D3261" stroke-width="0.5"/>
<path d="M54 18V46" stroke="#2D3261" stroke-width="0.5"/>
<path d="M52 18V35" stroke="#2D3261" stroke-width="0.5"/>
<path d="M62 29V47" stroke="#2D3261" stroke-width="0.5"/>
<path d="M64 32V42" stroke="#2D3261" stroke-width="0.5"/>
<path d="M66 34V38" stroke="#2D3261" stroke-width="0.5"/>
<path d="M79.152 22.8H81.78L90.6 44.832H90.816L96.576 30.576L93.444 22.8H96.072L104.856 44.76H105.072L112.344 22.8H114.972L104.604 48.504H103.812L97.08 31.764L90.312 48.504H89.52L79.152 22.8ZM118.427 35.4C118.427 33.552 118.751 31.836 119.399 30.252C120.071 28.644 120.995 27.252 122.171 26.076C123.371 24.876 124.763 23.952 126.347 23.304C127.955 22.632 129.683 22.296 131.531 22.296C133.379 22.296 135.095 22.632 136.679 23.304C138.287 23.952 139.679 24.876 140.855 26.076C142.055 27.252 142.979 28.644 143.627 30.252C144.299 31.836 144.635 33.552 144.635 35.4C144.635 37.248 144.299 38.976 143.627 40.584C142.979 42.168 142.055 43.56 140.855 44.76C139.679 45.936 138.287 46.86 136.679 47.532C135.095 48.18 133.379 48.504 131.531 48.504C129.683 48.504 127.955 48.18 126.347 47.532C124.763 46.86 123.371 45.936 122.171 44.76C120.995 43.56 120.071 42.168 119.399 40.584C118.751 38.976 118.427 37.248 118.427 35.4ZM121.163 35.4C121.163 37.848 121.595 39.996 122.459 41.844C123.323 43.668 124.535 45.096 126.095 46.128C127.655 47.136 129.467 47.64 131.531 47.64C133.595 47.64 135.407 47.136 136.967 46.128C138.527 45.096 139.739 43.656 140.603 41.808C141.467 39.96 141.899 37.824 141.899 35.4C141.899 32.976 141.467 30.852 140.603 29.028C139.739 27.18 138.527 25.74 136.967 24.708C135.407 23.676 133.595 23.16 131.531 23.16C129.467 23.16 127.655 23.676 126.095 24.708C124.559 25.716 123.347 27.144 122.459 28.992C121.595 30.816 121.163 32.952 121.163 35.4ZM152.184 22.8H157.008C159.552 22.8 161.52 23.34 162.912 24.42C164.328 25.476 165.036 26.964 165.036 28.884C165.036 30.372 164.592 31.608 163.704 32.592C162.84 33.576 161.58 34.236 159.924 34.572V34.788C161.508 35.1 162.804 35.844 163.812 37.02C164.82 38.196 165.576 39.648 166.08 41.376C166.536 42.96 166.98 44.196 167.412 45.084C167.868 45.948 168.36 46.572 168.888 46.956C169.44 47.34 170.088 47.616 170.832 47.784V48H169.356C168.3 48 167.424 47.808 166.728 47.424C166.056 47.04 165.48 46.392 165 45.48C164.52 44.568 164.064 43.308 163.632 41.7C162.936 39.228 162.012 37.476 160.86 36.444C159.708 35.412 158.304 34.896 156.648 34.896H156.432V34.248H156.648C160.512 34.248 162.444 32.472 162.444 28.92C162.444 25.416 160.632 23.664 157.008 23.664H154.632V48H152.184V22.8ZM190.834 48L179.026 35.076L189.97 22.8H193.066L181.222 34.068L194.074 48H190.834ZM175.282 48V22.8H177.73V48H175.282ZM199.469 22.8H201.917V47.28C202.373 47.28 203.093 47.208 204.077 47.064L210.053 46.164V48H199.469V22.8ZM219.67 48V37.344L210.742 22.8H213.478L221.506 35.976H221.722L228.13 22.8H230.866L222.262 36.84V48H219.67Z" fill="black"/>
</svg>
