<svg width="59" height="54" viewBox="0 0 59 54" fill="none" xmlns="http://www.w3.org/2000/svg">
<path d="M20 33.5L33.5 15L37.5 20L33 44.5L39 33.5L45.5 44.5L40.5 20L44 15L58 33.5L50 51.5L45.5 44.5L39 33.5L33 44.5L30 51.5L20 33.5Z" fill="#B5C7E6"/>
<path d="M45.5 44.5L39 33.5L33 44.5M45.5 44.5L50 51.5L58 33.5L44 15L40.5 20L45.5 44.5ZM33 44.5L30 51.5L20 33.5L33.5 15L37.5 20L33 44.5Z" stroke="#2D3261"/>
<path d="M31 19L31 48" stroke="#2D3261" stroke-width="0.5"/>
<path d="M33 16V44" stroke="#2D3261" stroke-width="0.5"/>
<path d="M35 17V32" stroke="#2D3261" stroke-width="0.5"/>
<path d="M25 27V42" stroke="#2D3261" stroke-width="0.5"/>
<path d="M23 29V39" stroke="#2D3261" stroke-width="0.5"/>
<ellipse cx="38" cy="9.5" rx="6" ry="5.5" fill="#2D3261"/>
<path d="M27 24V46" stroke="#2D3261" stroke-width="0.5"/>
<path d="M29 21V49" stroke="#2D3261" stroke-width="0.5"/>
<path d="M51 24V49" stroke="#2D3261" stroke-width="0.5"/>
<path d="M49 22V50" stroke="#2D3261" stroke-width="0.5"/>
<path d="M47 19V46" stroke="#2D3261" stroke-width="0.5"/>
<path d="M45 16V44" stroke="#2D3261" stroke-width="0.5"/>
<path d="M43 16V33" stroke="#2D3261" stroke-width="0.5"/>
<path d="M53 27V45" stroke="#2D3261" stroke-width="0.5"/>
<path d="M55 30V40" stroke="#2D3261" stroke-width="0.5"/>
<path d="M57 32V36" stroke="#2D3261" stroke-width="0.5"/>
</svg>
